<?xml version="1.0" encoding="UTF-8" standalone="no"?>
<svg xmlns="http://www.w3.org/2000/svg" viewBox="0 0 1200 800">
  <!-- Background -->
  <rect width="1200" height="800" fill="#f5f5f5"/>

  <!-- Wall Section -->
  <rect x="700" y="100" width="400" height="600" fill="#e0e0e0"/>

  <!-- Shop Vac -->
  <g transform="translate(300,500)">
    <!-- Base -->
    <path d="M-80 0 L80 0 L100 200 L-100 200 Z" fill="#2B2B2B"/>
    <!-- Drum -->
    <circle cx="0" cy="100" r="100" fill="#2B2B2B"/>
    <!-- Handle -->
    <rect x="-60" y="-30" width="120" height="20" fill="#444444"/>
    <!-- Wheels -->
    <circle cx="-70" cy="190" r="20" fill="#666666"/>
    <circle cx="70" cy="190" r="20" fill="#666666"/>
  </g>

  <!-- Vacuum Hose -->
  <path d="M300 500 Q500 450 700 500 Q900 550 1000 500" 
        stroke="#333333" stroke-width="40" fill="none" 
        stroke-linecap="round"/>

  <!-- Dryer Vent -->
  <g transform="translate(900,500)">
    <rect x="-50" y="-50" width="100" height="100" fill="#666666" rx="10"/>
    <circle cx="0" cy="0" r="30" fill="#444444"/>
  </g>

  <!-- Additional Equipment -->
  <g transform="translate(500,300)">
    <!-- Cleaning rods -->
    <rect x="-200" y="-10" width="400" height="20" fill="#666666"/>
    <!-- Brush heads -->
    <circle cx="200" cy="0" r="15" fill="#444444"/>
    <circle cx="-200" cy="0" r="15" fill="#444444"/>
  </g>
</svg>